<svg version="1.1" id="Layer_1" xmlns="http://www.w3.org/2000/svg" xmlns:xlink="http://www.w3.org/1999/xlink" x="0px" y="0px" viewBox="0 0 500 500" style="width: 144px;" xml:space="preserve" data-imageid="user-profile-100" imageName="User Profile" class="illustrations_image">
<style type="text/css">
	.st0_user-profile-100{fill:#FFFFFF;}
	.st1_user-profile-100{fill:#231F20;}
	.st2_user-profile-100{fill:#68E1FD;}
	.st3_user-profile-100{fill:#D1D3D4;}
</style>
<g id="Male_profile_user-profile-100">
	<path class="st0_user-profile-100" d="M476.4,220.2c0,54.9-44.5,99.4-99.4,99.4s-99.4-44.5-99.4-99.4s44.5-99.4,99.4-99.4l0,0&#10;&#9;&#9;c54.6-0.3,99.2,43.8,99.4,98.4C476.4,219.5,476.4,219.9,476.4,220.2z"/>
	<path class="st1_user-profile-100" d="M376.9,120.8c54.9,0,99.4,44.5,99.4,99.4s-44.5,99.4-99.4,99.4c-54.9,0-99.4-44.5-99.4-99.4&#10;&#9;&#9;C277.5,165.3,322,120.8,376.9,120.8 M376.9,119.3c-55.7,0.1-100.8,45.2-100.9,100.9c0.6,55.7,46.2,100.4,101.9,99.9&#10;&#9;&#9;c54.9-0.5,99.3-44.9,99.9-99.9C477.8,164.5,432.6,119.4,376.9,119.3z"/>
	<path class="st0_user-profile-100" d="M413.2,206.1c0,0,1.6-43.4,0-46.6s-78.6-18.3-77.9-16.4s3.5,7.8,3.5,7.8l-10.2,2.8l10.4,5.4l-10.3,4.7&#10;&#9;&#9;l13.6,6.5l1,37L413.2,206.1z"/>
	<path class="st1_user-profile-100" d="M343.2,208.1c-0.4,0-0.7-0.3-0.7-0.7l-1-36.6l-13.2-6.3c-0.4-0.2-0.5-0.6-0.3-1c0.1-0.1,0.2-0.3,0.3-0.3l9-4.1&#10;&#9;&#9;l-9-4.7c-0.3-0.1-0.4-0.4-0.4-0.7c0-0.3,0.2-0.5,0.5-0.6l9.4-2.5c-0.8-1.7-2.5-5.5-3.1-7.1c-0.1-0.4,0.1-0.8,0.4-1&#10;&#9;&#9;c2.4-1.1,39.4,6.5,39.7,6.6c17.2,3.5,38,8.2,39,10.2c1.6,3.2,0.2,42.5,0.1,47c0,0.4-0.3,0.7-0.7,0.7L343.2,208.1L343.2,208.1z&#10;&#9;&#9; M330.3,163.8l12.2,5.8c0.2,0.1,0.4,0.4,0.4,0.6l1,36.3l68.6-1.3c0.6-17.4,1.1-43.4,0-45.6c-0.9-1-13.3-4.4-38.2-9.5&#10;&#9;&#9;c-19.6-4-34.5-6.5-38-6.7c1,2.4,3.1,6.9,3.1,7c0.1,0.2,0.1,0.4,0,0.6c-0.1,0.2-0.3,0.3-0.5,0.4l-8.4,2.3l8.7,4.5&#10;&#9;&#9;c0.2,0.1,0.4,0.4,0.4,0.7c0,0.3-0.2,0.5-0.4,0.6L330.3,163.8z M413.2,206.1L413.2,206.1z"/>
	<path class="st2_user-profile-100 targetColor" d="M454.7,282.1c-16.5,20.7-40.5,34-66.8,36.9c-7.3,0.8-14.6,0.8-21.9,0c-26.3-2.9-50.4-16.2-66.8-36.9&#10;&#9;&#9;c12-8.3,27.6-17.1,45.3-22.3c21.2-6.6,43.8-6.6,65,0C427.2,265.1,442.7,273.8,454.7,282.1z" style="fill: rgb(104, 225, 253);"/>
	<path class="st0_user-profile-100" d="M401.4,207.7c1.9-11.8,21.5-14.7,20.5-0.8c-0.3,4.8-1.9,9.7-5.2,13.1s-8.8,5-13.2,3.1"/>
	<path class="st1_user-profile-100" d="M407.6,224.6c-1.5,0-3-0.3-4.4-0.9c-0.4-0.2-0.5-0.6-0.4-1c0.2-0.4,0.6-0.5,1-0.4c3.9,1.7,9,0.5,12.4-2.9&#10;&#9;&#9;c3.7-3.8,4.8-8.9,5-12.6c0.3-4.8-2-8-6.3-8.5c-5.2-0.6-11.8,3.1-12.8,9.4c-0.1,0.4-0.4,0.7-0.8,0.6c-0.4-0.1-0.7-0.4-0.6-0.8l0,0&#10;&#9;&#9;c1.1-7.1,8.5-11.3,14.4-10.6c4,0.4,8,3.3,7.6,10c-0.3,3.9-1.4,9.5-5.4,13.5C414.7,223.1,411.2,224.6,407.6,224.6z"/>
	<path class="st0_user-profile-100" d="M352.5,207.7c-1.9-11.8-21.5-14.7-20.5-0.8c0.3,4.8,1.9,9.7,5.2,13.1s8.8,5,13.2,3.1"/>
	<path class="st1_user-profile-100" d="M346.2,224.6c-3.6-0.1-7.1-1.5-9.6-4.1c-4-4.1-5.2-9.6-5.4-13.5c-0.5-6.7,3.6-9.6,7.6-10&#10;&#9;&#9;c5.9-0.7,13.3,3.5,14.4,10.6c0,0.4-0.3,0.7-0.7,0.8c-0.4,0-0.7-0.2-0.8-0.6c-1-6.3-7.6-10-12.8-9.4c-4.3,0.5-6.6,3.7-6.3,8.5&#10;&#9;&#9;c0.3,3.7,1.3,8.9,5,12.6c3.4,3.5,8.5,4.7,12.4,2.9c0.4-0.2,0.8,0,1,0.3c0,0,0,0,0,0c0.2,0.4,0,0.8-0.4,0.9c0,0,0,0,0,0&#10;&#9;&#9;C349.3,224.3,347.8,224.6,346.2,224.6z"/>
	<path class="st0_user-profile-100" d="M355.1,266.8c0,0,5.3,11.6,20.8,11.6s21.8-11.6,21.8-11.6l-2.1-45.4h-38.4L355.1,266.8z"/>
	<path class="st1_user-profile-100" d="M375.9,279c-15.8,0-21.4-11.9-21.5-12c0-0.1-0.1-0.2-0.1-0.3l2.1-45.4c0-0.4,0.3-0.7,0.7-0.7h38.4&#10;&#9;&#9;c0.4,0,0.7,0.3,0.7,0.7l2.1,45.4c0,0.1,0,0.3-0.1,0.4C393.4,274.7,385,279.2,375.9,279z M355.8,266.6c0.7,1.4,6,11,20.1,11&#10;&#9;&#9;c8.4,0.2,16.4-4,21-11l-2-44.5h-37L355.8,266.6z"/>
	<path class="st1_user-profile-100" d="M357.2,240.8c2.7,4.3,7.1,7.7,11.6,10.2c7.6,4.2,19,8.9,28.2,7.5l-1.5-19.2c-6.8,0.8-13.6,0.9-20.4,0.1&#10;&#9;&#9;c-6-0.5-12.1-1.1-17.6-3.4C356.6,235.6,356,238.9,357.2,240.8z"/>
	<path class="st1_user-profile-100" d="M393.5,259.4c-9.3,0-19.4-4.8-25-7.9s-9.5-6.6-11.9-10.4c-1.1-1.7-0.9-4.4-0.1-5.4c0.3-0.4,0.9-0.5,1.3-0.3&#10;&#9;&#9;c5.5,2.3,11.8,2.9,17.4,3.4c6.7,0.8,13.5,0.7,20.2-0.1c0.2,0,0.4,0,0.5,0.1c0.1,0.1,0.2,0.3,0.3,0.5l1.5,19.2&#10;&#9;&#9;c0,0.4-0.2,0.7-0.6,0.7C395.9,259.4,394.7,259.4,393.5,259.4z M357.5,236.8c-0.4,1.2-0.3,2.5,0.3,3.7l0,0c2.3,3.7,6.1,7,11.4,9.9&#10;&#9;&#9;c6.1,3.4,17.5,8.7,27.1,7.5l-1.4-17.8c-6.6,0.7-13.2,0.7-19.8,0C369.5,239.6,363.1,239.1,357.5,236.8L357.5,236.8z M357.3,236.7&#10;&#9;&#9;L357.3,236.7z"/>
	<path class="st0_user-profile-100" d="M375.4,243.8h3.2c15,0,27.1-12.1,27.1-27.1v-42.9h-57.3v42.9C348.3,231.7,360.4,243.8,375.4,243.8&#10;&#9;&#9;C375.4,243.8,375.4,243.8,375.4,243.8z"/>
	<path class="st1_user-profile-100" d="M405.6,173.8v42.9c0,15-12.1,27.1-27.1,27.1h-3.2c-15,0-27.1-12.1-27.1-27.1c0,0,0,0,0,0v-42.9H405.6&#10;&#9;&#9; M405.6,172.4h-57.3c-0.8,0-1.5,0.6-1.5,1.4c0,0,0,0,0,0v42.9c0,15.8,12.8,28.5,28.5,28.5h3.2c15.8,0,28.5-12.8,28.5-28.5v-42.9&#10;&#9;&#9;C407.1,173,406.4,172.4,405.6,172.4C405.6,172.4,405.6,172.4,405.6,172.4z"/>
	<path class="st1_user-profile-100" d="M377.4,217c-1.3,0-2.6-0.1-3.9-0.2c-0.5-0.1-1-0.4-1.3-0.9c-2-3.3,3.3-17.5,4.4-20.4c0.1-0.4,0.6-0.6,0.9-0.4&#10;&#9;&#9;c0.4,0.1,0.6,0.6,0.4,0.9c-2.4,6.3-5.7,17-4.5,19.1c0,0.1,0.1,0.2,0.2,0.2c2.6,0.3,5.1,0.3,7.7,0c0.4-0.1,0.7,0.2,0.8,0.6&#10;&#9;&#9;c0,0,0,0,0,0c0.1,0.4-0.2,0.8-0.6,0.8c0,0,0,0,0,0C380.1,216.9,378.8,217,377.4,217z"/>
	<path class="st1_user-profile-100" d="M424.1,308.3H424c-0.4,0-0.7-0.4-0.6-0.8c0,0,0,0,0,0l3.4-25.9c0.1-0.4,0.4-0.7,0.8-0.6&#10;&#9;&#9;c0.4,0.1,0.7,0.4,0.6,0.8c0,0,0,0,0,0l-3.4,25.9C424.8,308,424.5,308.3,424.1,308.3z"/>
	<path class="st1_user-profile-100" d="M329.8,308.3c-0.4,0-0.7-0.3-0.7-0.6l-3.4-25.9c0-0.4,0.2-0.8,0.6-0.8c0.4-0.1,0.8,0.2,0.8,0.6c0,0,0,0,0,0&#10;&#9;&#9;l3.4,25.9c0.1,0.4-0.2,0.8-0.6,0.8c0,0,0,0,0,0L329.8,308.3z"/>
</g>
<g id="Female_profile_user-profile-100">
	<path class="st0_user-profile-100" d="M222.5,220.2c0,54.9-44.5,99.4-99.4,99.4s-99.4-44.5-99.4-99.4s44.5-99.4,99.4-99.4l0,0&#10;&#9;&#9;c54.6-0.3,99.2,43.8,99.4,98.4C222.5,219.5,222.5,219.9,222.5,220.2z"/>
	<path class="st1_user-profile-100" d="M123.1,120.8c54.9,0,99.4,44.5,99.4,99.4c0,54.9-44.5,99.4-99.4,99.4c-54.9,0-99.4-44.5-99.4-99.4&#10;&#9;&#9;C23.6,165.3,68.1,120.8,123.1,120.8 M123.1,119.3c-55.7,0.1-100.8,45.2-100.9,100.9c0,55.7,45.2,100.9,100.9,100.9&#10;&#9;&#9;c55.7-0.6,100.4-46.2,99.9-101.9C222.4,164.3,178,119.9,123.1,119.3z"/>
	<path class="st0_user-profile-100" d="M67.1,249.8c0-56.9,7.7-103.1,55.4-103.1s55.4,46.2,55.4,103.1H67.1z"/>
	<path class="st1_user-profile-100" d="M177.9,250.6H67.1c-0.4,0-0.7-0.3-0.7-0.7l0,0c0-23.2,1.1-52.5,9.9-73.2s23.9-30.6,46.3-30.6&#10;&#9;&#9;c49.3,0,56.2,49.9,56.2,103.8C178.7,250.2,178.3,250.6,177.9,250.6z M67.8,249.1h109.4c0-23-1.2-51.7-9.8-71.9&#10;&#9;&#9;c-8.5-20-23.2-29.8-44.9-29.8s-36.5,9.7-44.9,29.8C69,197.4,67.8,226.2,67.8,249.1z"/>
	<path class="st2_user-profile-100 targetColor" d="M200.8,282.1c-16.5,20.7-40.5,34-66.8,36.9c-7.3,0.8-14.6,0.8-21.9,0c-26.3-2.9-50.4-16.2-66.8-36.9&#10;&#9;&#9;c12-8.3,27.6-17.1,45.3-22.3c10.5-3.2,21.5-4.9,32.5-4.9c11,0.1,22,1.7,32.5,4.9C173.3,265.1,188.9,273.8,200.8,282.1z" style="fill: rgb(104, 225, 253);"/>
	<path class="st0_user-profile-100" d="M147.5,207.7c1.9-11.8,21.5-14.7,20.5-0.8c-0.3,4.8-1.9,9.7-5.2,13.1s-8.8,5-13.1,3.1"/>
	<path class="st1_user-profile-100" d="M153.8,224.6c-1.5,0-3-0.3-4.4-0.9c-0.4-0.2-0.5-0.6-0.4-1s0.6-0.5,1-0.4l0,0c3.9,1.7,9,0.5,12.4-2.9&#10;&#9;&#9;c3.7-3.8,4.8-8.9,5-12.6c0.3-4.8-2-8-6.3-8.5c-5.2-0.6-11.8,3.1-12.8,9.4c-0.1,0.4-0.5,0.6-0.9,0.5c-0.4-0.1-0.6-0.4-0.6-0.8&#10;&#9;&#9;c1.1-7.1,8.5-11.3,14.4-10.6c4,0.4,8,3.3,7.6,10c-0.3,3.9-1.4,9.5-5.4,13.5C160.8,223.1,157.4,224.6,153.8,224.6z"/>
	<path class="st0_user-profile-100" d="M98.6,207.7c-1.9-11.8-21.5-14.7-20.5-0.8c0.3,4.8,1.9,9.7,5.2,13.1s8.8,5,13.2,3.1"/>
	<path class="st1_user-profile-100" d="M92.4,224.6c-3.6-0.1-7.1-1.5-9.6-4.1c-4-4.1-5.2-9.6-5.4-13.5c-0.5-6.7,3.6-9.6,7.6-10&#10;&#9;&#9;c5.9-0.7,13.3,3.5,14.4,10.6c0.1,0.4-0.2,0.8-0.6,0.8c-0.4,0.1-0.8-0.2-0.8-0.6c-1-6.3-7.6-10-12.8-9.4c-4.3,0.5-6.6,3.7-6.3,8.5&#10;&#9;&#9;c0.2,3.7,1.3,8.9,5,12.6c3.4,3.5,8.5,4.7,12.3,2.9c0.4-0.2,0.8,0,1,0.4s0,0.8-0.4,1C95.4,224.3,93.9,224.6,92.4,224.6z"/>
	<path class="st0_user-profile-100" d="M105,266.8c0,0,4.4,11.6,17.1,11.6c10.2,0,17.9-11.6,17.9-11.6l-1.7-45.4h-31.5L105,266.8z"/>
	<path class="st1_user-profile-100" d="M122.1,279c-13.1,0-17.7-11.9-17.8-12c0-0.1,0-0.2,0-0.3l1.7-45.4c0-0.4,0.3-0.7,0.7-0.7h31.6&#10;&#9;&#9;c0.4,0,0.7,0.3,0.7,0.7l1.7,45.4c0,0.2,0,0.3-0.1,0.4C140.3,267.6,132.5,279,122.1,279z M105.8,266.6c0.5,1.3,4.9,11,16.4,11&#10;&#9;&#9;c9,0,16.1-9.6,17.2-11.1l-1.7-44.5h-30.2L105.8,266.6z"/>
	<path class="st1_user-profile-100" d="M106.7,240.8c2.3,4.2,5.6,7.7,9.5,10.2c6.2,4.2,15.6,8.9,23.2,7.5l-1.2-19.2c-5.5,0.8-11.2,0.9-16.7,0.1&#10;&#9;&#9;c-4.9-0.5-10-1.1-14.4-3.4C106.2,235.6,105.8,238.9,106.7,240.8z"/>
	<path class="st1_user-profile-100" d="M136.6,259.4c-7.7,0-16.1-4.8-20.7-7.9c-4.1-2.6-7.5-6.2-9.8-10.4c-0.9-1.8-0.7-4.7,0.1-5.5&#10;&#9;&#9;c0.3-0.3,0.8-0.4,1.2-0.2c4.4,2.3,9.6,2.8,14.2,3.3c5.5,0.8,11.1,0.7,16.5-0.1c0.4-0.1,0.8,0.2,0.8,0.6c0,0,0,0,0,0.1l1.2,19.2&#10;&#9;&#9;c0,0.3-0.2,0.7-0.6,0.7C138.6,259.4,137.6,259.4,136.6,259.4z M107.1,236.8c-0.3,1.2-0.2,2.5,0.3,3.6l0,0c2.2,4,5.4,7.5,9.3,9.9&#10;&#9;&#9;c4.9,3.3,14.2,8.6,22.1,7.5l-1.1-17.8c-5.4,0.7-10.8,0.7-16.2,0C116.8,239.6,111.7,239.1,107.1,236.8z M106.7,236.6L106.7,236.6z"/>
	<path class="st0_user-profile-100" d="M151.7,194.1v22.6c0,15-12.1,27.1-27.1,27.1c0,0,0,0,0,0h-3.2c-15,0-27.1-12.1-27.1-27.1c0,0,0,0,0,0V194&#10;&#9;&#9;c0,0,9.3-2.8,19-21.7C132.5,194.3,151.7,194.1,151.7,194.1z"/>
	<path class="st1_user-profile-100" d="M124.6,244.5h-3.2c-15.3,0-27.8-12.5-27.8-27.8V194c0-0.3,0.2-0.6,0.5-0.7c0.1,0,9.2-3,18.6-21.4&#10;&#9;&#9;c0.1-0.2,0.3-0.4,0.6-0.4c0.2,0,0.5,0.1,0.6,0.2c18.6,21.5,37.4,21.7,37.8,21.7l0,0c0.2,0,0.4,0.1,0.5,0.2c0.1,0.1,0.2,0.3,0.2,0.5&#10;&#9;&#9;v22.6C152.4,232.1,140,244.5,124.6,244.5z M95.1,194.4v22.3c0,14.6,11.8,26.3,26.4,26.4h3.2c14.6,0,26.3-11.8,26.4-26.4v-21.9&#10;&#9;&#9;c-3.7-0.2-20.4-2.1-37.4-21.4C105.2,189.4,97.2,193.6,95.1,194.4z"/>
	<path class="st1_user-profile-100" d="M123.5,217c-1.3,0-2.6-0.1-3.9-0.2c-0.5-0.1-1-0.4-1.3-0.9c-2-3.3,3.3-17.5,4.4-20.4c0.1-0.4,0.5-0.6,0.9-0.5&#10;&#9;&#9;c0.4,0.1,0.6,0.5,0.5,0.9c0,0,0,0.1,0,0.1c-2.4,6.3-5.7,17-4.5,19.1c0.1,0.1,0.2,0.2,0.2,0.2c2.6,0.3,5.1,0.3,7.7,0&#10;&#9;&#9;c0.4-0.1,0.8,0.2,0.8,0.6c0,0,0,0,0,0c0.1,0.4-0.2,0.8-0.6,0.8c0,0,0,0,0,0C126.3,216.9,124.9,217,123.5,217z"/>
	<path class="st1_user-profile-100" d="M170.2,308.3h-0.1c-0.4-0.1-0.7-0.4-0.6-0.8c0,0,0,0,0,0l3.5-25.9c0.1-0.4,0.4-0.7,0.8-0.6s0.7,0.4,0.6,0.8&#10;&#9;&#9;l-3.4,25.9C170.9,308,170.6,308.3,170.2,308.3z"/>
	<path class="st1_user-profile-100" d="M75.9,308.3c-0.4,0-0.7-0.3-0.7-0.6l-3.4-25.9c-0.1-0.4,0.2-0.8,0.6-0.8c0.4-0.1,0.8,0.2,0.8,0.6l0,0l3.4,25.9&#10;&#9;&#9;c0.1,0.4-0.2,0.8-0.6,0.8C76,308.3,76,308.3,75.9,308.3L75.9,308.3z"/>
</g>
<g id="Name_Female_user-profile-100">
	<path class="st0_user-profile-100" d="M42.4,344.8h161.3c8.7,0,15.8,7.1,15.8,15.8v3.6c0,8.7-7.1,15.8-15.8,15.8H42.4c-8.7,0-15.8-7.1-15.8-15.8&#10;&#9;&#9;v-3.6C26.6,351.9,33.7,344.8,42.4,344.8z"/>
	<path class="st3_user-profile-100" d="M203.7,380.7H42.4c-9.1,0-16.5-7.4-16.5-16.5v-3.6c0-9.1,7.4-16.5,16.5-16.5h161.3c9.1,0,16.5,7.4,16.5,16.5&#10;&#9;&#9;v3.6C220.2,373.3,212.8,380.7,203.7,380.7z M42.4,345.5c-8.3,0-15.1,6.7-15.1,15.1v3.6c0,8.3,6.8,15.1,15.1,15.1h161.3&#10;&#9;&#9;c8.3,0,15.1-6.8,15.1-15.1v-3.6c0-8.3-6.8-15.1-15.1-15.1H42.4z"/>
	<path class="st3_user-profile-100" d="M186,371.6H60.1c-0.4,0-0.7-0.3-0.7-0.7c0-0.4,0.3-0.7,0.7-0.7H186c0.4,0,0.7,0.3,0.7,0.7&#10;&#9;&#9;C186.7,371.3,186.4,371.6,186,371.6C186,371.6,186,371.6,186,371.6z"/>
</g>
<g id="Name_Male_user-profile-100">
	<path class="st0_user-profile-100" d="M296.3,344.8h161.3c8.7,0,15.8,7.1,15.8,15.8v3.6c0,8.7-7.1,15.8-15.8,15.8H296.3c-8.7,0-15.8-7.1-15.8-15.8&#10;&#9;&#9;v-3.6C280.5,351.9,287.6,344.8,296.3,344.8z"/>
	<path class="st3_user-profile-100" d="M457.6,380.7H296.3c-9.1,0-16.5-7.4-16.5-16.5v-3.6c0-9.1,7.4-16.5,16.5-16.5h161.3c9.1,0,16.5,7.4,16.5,16.5&#10;&#9;&#9;v3.6C474.1,373.3,466.7,380.7,457.6,380.7z M296.3,345.5c-8.3,0-15.1,6.7-15.1,15.1v3.6c0,8.3,6.8,15.1,15.1,15.1h161.3&#10;&#9;&#9;c8.3,0,15.1-6.8,15.1-15.1v-3.6c0-8.3-6.8-15.1-15.1-15.1H296.3z"/>
	<path class="st3_user-profile-100" d="M439.9,371.6H314c-0.4,0-0.7-0.3-0.7-0.7s0.3-0.7,0.7-0.7c0,0,0,0,0,0h125.9c0.4,0,0.7,0.3,0.7,0.7&#10;&#9;&#9;S440.3,371.6,439.9,371.6C439.9,371.6,439.9,371.6,439.9,371.6z"/>
</g>
<g id="add_icon_Female_user-profile-100">
	<circle class="st0_user-profile-100" cx="185" cy="298" r="27.2"/>
	<path class="st1_user-profile-100" d="M185,270.8c15,0,27.2,12.2,27.2,27.2c0,15-12.2,27.2-27.2,27.2s-27.2-12.2-27.2-27.2c0,0,0,0,0,0&#10;&#9;&#9;C157.8,283,170,270.8,185,270.8 M185,269.3c-15.8,0-28.7,12.8-28.7,28.7c0,15.8,12.8,28.7,28.7,28.7c15.8,0,28.7-12.8,28.7-28.7&#10;&#9;&#9;C213.7,282.2,200.8,269.3,185,269.3z"/>
	<path class="st3_user-profile-100" d="M199.4,295.4h-11.8v-11.8c0-1-0.8-1.8-1.8-1.8l0,0h-1.7c-1,0-1.8,0.8-1.8,1.8l0,0v11.8h-11.8&#10;&#9;&#9;c-1,0-1.8,0.8-1.8,1.8l0,0v1.7c0,1,0.8,1.8,1.8,1.8l0,0h11.8v11.8c0,1,0.8,1.8,1.8,1.8l0,0h1.7c1,0,1.8-0.8,1.8-1.8l0,0v-11.8h11.8&#10;&#9;&#9;c1,0,1.8-0.8,1.8-1.8l0,0v-1.7C201.2,296.2,200.4,295.4,199.4,295.4L199.4,295.4z"/>
</g>
<g id="add_icon_Male_user-profile-100">
	<circle class="st0_user-profile-100" cx="441.1" cy="298" r="27.2"/>
	<path class="st1_user-profile-100" d="M441.1,270.8c15,0,27.2,12.2,27.2,27.2s-12.2,27.2-27.2,27.2c-15,0-27.2-12.2-27.2-27.2c0,0,0,0,0,0&#10;&#9;&#9;C413.9,283,426.1,270.8,441.1,270.8 M441.1,269.3c-15.8,0-28.7,12.8-28.7,28.7s12.8,28.7,28.7,28.7c15.8,0,28.7-12.8,28.7-28.7&#10;&#9;&#9;C469.7,282.2,456.9,269.4,441.1,269.3z"/>
	<path class="st3_user-profile-100" d="M455.5,295.4h-11.8v-11.8c0-1-0.8-1.8-1.8-1.8h-1.7c-1,0-1.8,0.8-1.8,1.8v11.8h-11.8c-1,0-1.8,0.8-1.8,1.8v1.7&#10;&#9;&#9;c0,1,0.8,1.8,1.8,1.8h11.8v11.8c0,1,0.8,1.8,1.8,1.8h1.7c1,0,1.8-0.8,1.8-1.8v-11.8h11.8c1,0,1.8-0.8,1.8-1.8c0,0,0,0,0,0v-1.7&#10;&#9;&#9;C457.3,296.2,456.5,295.4,455.5,295.4z"/>
</g>
</svg>