<svg id="_0141_user_profile" xmlns="http://www.w3.org/2000/svg" xmlns:xlink="http://www.w3.org/1999/xlink" viewBox="0 0 500 500" data-imageid="user-profile-53" imageName="User Profile" class="illustrations_image" style="width: 144px;"><defs><style>.cls-1_user-profile-53{fill:url(#linear-gradient);}.cls-1_user-profile-53,.cls-2_user-profile-53,.cls-3_user-profile-53,.cls-4_user-profile-53,.cls-5_user-profile-53,.cls-6_user-profile-53,.cls-7_user-profile-53,.cls-8_user-profile-53,.cls-9_user-profile-53,.cls-10_user-profile-53,.cls-11_user-profile-53,.cls-12_user-profile-53,.cls-13_user-profile-53{stroke-width:0px;}.cls-2_user-profile-53{isolation:isolate;opacity:.18;}.cls-2_user-profile-53,.cls-13_user-profile-53{fill:#68e1fd;}.cls-3_user-profile-53{fill:url(#linear-gradient-4-user-profile-53);}.cls-4_user-profile-53{fill:url(#linear-gradient-2-user-profile-53);}.cls-5_user-profile-53{fill:url(#linear-gradient-3-user-profile-53);}.cls-6_user-profile-53{fill:url(#linear-gradient-5-user-profile-53);}.cls-7_user-profile-53{fill:url(#linear-gradient-6-user-profile-53);}.cls-8_user-profile-53{fill:#404040;}.cls-9_user-profile-53{fill:#c14834;}.cls-10_user-profile-53{fill:#fff;}.cls-11_user-profile-53{fill:#ffaa71;}.cls-12_user-profile-53{fill:#ffb4a3;}</style><linearGradient id="linear-gradient-user-profile-53" x1="463.51" y1="3552.06" x2="468.74" y2="3630.93" gradientTransform="translate(-42.48 3849.63) scale(1 -1)" gradientUnits="userSpaceOnUse"><stop offset="0" stop-color="#000" stop-opacity="0"/><stop offset=".99" stop-color="#000"/></linearGradient><linearGradient id="linear-gradient-2-user-profile-53" x1="436.31" y1="3607.21" x2="448.42" y2="3608.96" xlink:href="#linear-gradient-user-profile-53"/><linearGradient id="linear-gradient-3-user-profile-53" x1="-565.17" y1="3607.21" x2="-553.06" y2="3608.96" gradientTransform="translate(-109.28 3849.63) rotate(-180)" xlink:href="#linear-gradient-user-profile-53"/><linearGradient id="linear-gradient-4-user-profile-53" x1="445.11" y1="3516" x2="402.99" y2="3661.31" xlink:href="#linear-gradient-user-profile-53"/><linearGradient id="linear-gradient-5-user-profile-53" x1="-577.76" y1="3565.08" x2="-586.79" y2="3601.47" gradientTransform="translate(-317.06 3849.63) rotate(-180)" xlink:href="#linear-gradient-user-profile-53"/><linearGradient id="linear-gradient-6-user-profile-53" x1="127.77" y1="3564.83" x2="118.74" y2="3601.21" xlink:href="#linear-gradient-user-profile-53"/></defs><g id="character_3_user-profile-53"><path class="cls-2_user-profile-53 targetColor" d="M500.51,255.9c0,41.95-34.01,75.95-75.95,75.95-13.45,0-26.67-3.57-38.28-10.36l3.09,2.81-37.26,12.79,12.62-34.49c-25.79-33.08-19.87-80.8,13.2-106.58,33.08-25.79,80.8-19.87,106.58,13.2,10.4,13.34,16.05,29.76,16.05,46.68h-.05Z" style="fill: rgb(104, 225, 253);"/><path class="cls-13_user-profile-53 targetColor" d="M411.32,281.48s-20.88.42-31.55,17.85c0,0-7.27,24.97-6.54,30.28l16.13-5.28c8.04,4.49,20.12,7.93,37.3,7.16,32.37-1.44,46.96-17.85,46.96-17.85,0,0-3.43-23.24-22.59-28.52-19.16-5.28-39.71-3.63-39.71-3.63Z" style="fill: rgb(104, 225, 253);"/><path class="cls-9_user-profile-53" d="M412.89,263.7s-.27,14.76-1.57,17.78,10.26,12.23,22.1,3.82l.79-3.69s-2.1-10.26-.79-19.21c1.31-8.95-20.53,1.31-20.53,1.31Z"/><path class="cls-1_user-profile-53" d="M412.71,265.63s2.07,9.92,10.84,10.61c8.77.69,9.48-2.28,9.48-2.28l.22-12.72-20.54,4.38Z"/><path class="cls-9_user-profile-53" d="M399.56,233.71c-1.02-.74-2.32-.99-3.54-.68-.47.2-.88.5-1.21.88-1.84,1.95-1.74,5.03-1.21,7.65.33,1.47.77,2.92,1.33,4.32.22.65.56,1.26.98,1.8,1.3,1.56,3.63,1.77,5.63,1.54,1.22,0,2.36-.59,3.08-1.57.18-.42.29-.86.31-1.32.51-5.29-.74-9.82-5.38-12.63Z"/><path class="cls-9_user-profile-53" d="M449.61,235.86c1.49-1.04,3.43-1.84,5.1-1.13,1.33.67,2.21,2,2.3,3.49.08,1.47-.17,2.94-.75,4.29-.57,1.74-1.47,3.35-2.65,4.75-1.21,1.38-2.9,2.25-4.72,2.42-1.86.14-3.64-.8-4.57-2.42-.44-1.06-.65-2.21-.61-3.37-.08-.89.02-1.79.3-2.64.71-1.76,4.07-4.34,5.6-5.39Z"/><path class="cls-9_user-profile-53" d="M448.08,240.84c-1.89,15.83-10.69,28.86-23.87,28.86s-23.86-12.92-23.86-28.86,8.48-33.91,21.66-33.91,29.93,1.54,26.08,33.91Z"/><path class="cls-8_user-profile-53" d="M400.36,233.56l.22,3.54c0,.56.18,1.21.73,1.37s1.08-.82,1.09-1.55c0-2.91-.91-6.19.9-8.48.45-.45.86-.94,1.21-1.47.75-1.51-.39-3.44.29-4.99.4-.88,1.28-1.43,1.93-2.17.79-1.15,1.39-2.43,1.78-3.77.15-.45.43-.85.81-1.13.36-.15.75-.25,1.14-.3,1.48-.38,2.35-1.89,3.63-2.68,1.16-.58,2.46-.82,3.75-.7,5.05.16,10.31,1.95,14.98,0,1.92,2.73,4.84,4.59,8.13,5.18.27.02.54.11.76.27.22.26.36.57.41.91.48,1.06,1.16,2.03,2.01,2.83,2.92,3.63,2.86,8.66,2.64,13.32l-.34,7.4,2.58-4.34c.27-.51.61-.96,1.03-1.36.47-.4,1.1-.64,1.39-1.21.12-.28.19-.59.21-.9l.63-6.35c.18-1.14.14-2.31-.12-3.44-.22-.7-.61-1.34-.82-2.05-.24-1.29-.28-2.61-.11-3.91.17-1.32-.25-2.65-1.14-3.63.85-2.83,1.65-5.84.98-8.72-.67-2.88-3.34-5.51-6.26-5.07-.44.12-.9.15-1.36.1-.38-.13-.73-.34-1.03-.62-2.04-1.6-4.52-2.54-7.11-2.66-3.05-.19-6.11-.19-9.16,0-6.86.57-14.05-.85-20.46,1.62-1.54.57-2.96,1.42-4.19,2.52-1.27,1.29-2.35,2.75-3.23,4.32-.49.7-.86,1.49-1.08,2.31-.1.91-.1,1.83,0,2.74,0,3.04-1.55,6.06-1.04,9.02.18,1.1.63,2.13.79,3.23.08,1,.08,2.01,0,3.02-.08,2.54.36,5.07,1.31,7.42.16.4.41.86.85.9s.88-1.02,1.27-.55Z"/><path class="cls-8_user-profile-53" d="M403.83,260.16c.33,1.46.83,2.88,1.5,4.23,1.72,2.92,4.43,5.12,7.64,6.21,3.19,1.06,6.53,1.6,9.9,1.59,4.51.12,9.03-.15,13.49-.8,1.6-.23,1.48-.58,2.76-1.54,2.07-1.55,4.45-4.31,4.84-6.87,1.28-7.59,3.43-18.17,3.11-25.87-2.06,3.8-2.03,11.94-5.03,15.07-1.62,1.68-4.05,2.26-6.35,2.64-7.4,1.23-14.97,1.12-22.33-.3-2.23-.25-4.33-1.15-6.06-2.59-2.62-2.58-2.42-6.73-2.99-10.37-.23-1.6-.85-3.98-2.6-4.52-.53,3.19.19,6.67.27,9.88.11,4.47.73,8.91,1.84,13.24Z"/><path class="cls-4_user-profile-53" d="M397.92,238.78c0-.36-.04-.73-.13-1.08-.1-.36-.42-.62-.79-.64-.39,0-.67.36-.85.7-.65,1.44-.72,3.07-.18,4.55.4,1.51,1.33,2.83,2.63,3.71.65.48,1.51.55,2.23.18,1.21-.84.74-3.28-.35-3.96-.67-.41-1.21-.36-1.73-1.09-.5-.69-.78-1.52-.82-2.37Z"/><path class="cls-5_user-profile-53" d="M451.79,238.78c0-.36.04-.73.13-1.08.1-.36.42-.62.79-.64.39,0,.67.36.85.7.65,1.44.72,3.07.18,4.55-.4,1.51-1.33,2.83-2.63,3.71-.65.48-1.51.55-2.23.18-1.21-.84-.73-3.28.35-3.96.67-.41,1.21-.36,1.73-1.09.5-.69.78-1.52.82-2.37Z"/><path class="cls-13_user-profile-53 targetColor" d="M438.28,275.43c-1.21-.55-2.55-.77-3.88-.63-8.18.22-16.63,1.91-24.32-.86-1.32,1.28-2.29,2.88-2.81,4.64-.79,3.72,2.35,7.17,5.74,8.87,5.73,2.88,12.44,2.82,18.83,2.42,2.51-.15,5.22-.4,7.09-2.1,2.97-2.64,3.12-10.22-.65-12.34Z" style="fill: rgb(104, 225, 253);"/><path class="cls-3_user-profile-53" d="M407.11,281.34s-2.64,6.31,10.53,6.58c0,0-13.17.27-16.85,3.16s-12.9,7.36-13.42,13.17-3.69,21.32-3.69,21.32l-10.48,4.02,6.54-30.28c6.27-9.5,16.17-15.99,27.37-17.96Z"/></g><g id="character_2_user-profile-53"><path class="cls-2_user-profile-53 targetColor" d="M333.92,255.9c0,41.95-34.03,75.96-75.98,75.95-13.45,0-26.66-3.58-38.27-10.35l3.1,2.81-37.3,12.79,12.57-34.49c-25.79-33.08-19.87-80.8,13.2-106.58,33.08-25.79,80.8-19.87,106.58,13.2,10.4,13.34,16.05,29.76,16.05,46.68h.05Z" style="fill: rgb(104, 225, 253);"/><path class="cls-13_user-profile-53 targetColor" d="M244.72,281.48s-20.88.42-31.49,17.85c0,0-7.27,24.97-6.54,30.28l16.13-5.28c8.04,4.49,20.12,7.93,37.29,7.16,32.39-1.44,46.97-17.85,46.97-17.85,0,0-3.43-23.24-22.59-28.52-19.16-5.28-39.78-3.63-39.78-3.63Z" style="fill: rgb(104, 225, 253);"/><path class="cls-8_user-profile-53" d="M290.11,253.69c2.63-13.42,4.99-34.13-4.25-38.37l-6.06-.28s-4.45-10.3-22.25-8.62-35.75,16.68-27.64,41.06c4.21,12.64-3.27,31.04-3.27,31.04l26.19-.1,40.43-1.28h0c-3.62-7.25-4.73-15.5-3.15-23.45Z"/><path class="cls-11_user-profile-53" d="M286.14,233.04s5.14,32.5-7.78,36.66c-2.85,1.69-6.27,2.13-9.45,1.21v10.28s-13.04,9.86-23.74-.7v-26.52s1.21-16.16,4.45-14.44c.74.4,7.27-.28,8.33-12.11,0,0,14.99-6.67,21.93-2.08,6.94,4.59,6.25,7.7,6.25,7.7Z"/><path class="cls-6_user-profile-53" d="M268.92,270.95s-7.91-2.08-10.83-5.69c0,0,4.02,15.83,10.83,15.98v-10.28Z"/><path class="cls-8_user-profile-53" d="M275.4,223.62c-4.01,0-8.37.57-11.19,3.4-3.49,3.5-3.4,9.07-4.93,13.77-1.13,3.58-3.38,6.7-6.43,8.89-3.08,2.17-6.91,3.02-10.62,2.34-.76-.08-1.46-.47-1.93-1.08-.26-.54-.34-1.15-.25-1.74.35-6.66,1.14-13.55,4.58-19.26,1.92-3.15,4.57-5.8,7.73-7.72,1.83-1.17,3.9-1.93,6.06-2.23,4.24-.48,8.36,1.4,12.2,3.26"/><path class="cls-10_user-profile-53" d="M244.59,280.43s-4.52.69-4.37,3.96.69,13.12,5.77,10.76,9.37-9.51,9.37-9.51l-10.77-5.21Z"/><path class="cls-10_user-profile-53" d="M268.05,280.43s4.52.69,4.38,3.96-.7,13.12-5.77,10.76c-5.06-2.36-9.37-9.51-9.37-9.51l10.76-5.21Z"/><circle class="cls-10_user-profile-53" cx="256.07" cy="298.64" r="2.51"/><circle class="cls-10_user-profile-53" cx="256.07" cy="307.5" r="2.51"/><circle class="cls-10_user-profile-53" cx="256.07" cy="316.37" r="2.51"/></g><g id="character_1_user-profile-53"><path class="cls-2_user-profile-53 targetColor" d="M165.93,255.9c0,41.95-34.01,75.95-75.95,75.95-13.45,0-26.67-3.57-38.28-10.36l3.1,2.81-37.27,12.79,12.58-34.49c-25.79-33.07-19.9-80.79,13.18-106.59,33.07-25.79,80.79-19.9,106.59,13.18,10.41,13.34,16.06,29.78,16.06,46.71Z" style="fill: rgb(104, 225, 253);"/><path class="cls-13_user-profile-53 targetColor" d="M77.08,281.48s-20.88.42-31.49,17.85c0,0-5.54,24.77-4.84,30.05l13.69-6.2c.41,1.13,20.52,9.07,38.04,8.28,32.33-1.44,46.97-17.82,46.97-17.82,0,0-3.43-23.24-22.59-28.52-19.16-5.28-39.78-3.65-39.78-3.65Z" style="fill: rgb(104, 225, 253);"/><path class="cls-10_user-profile-53" d="M76.93,280.43s-4.52.69-4.37,3.96.69,13.12,5.77,10.76,9.37-9.51,9.37-9.51l-10.77-5.21Z"/><path class="cls-10_user-profile-53" d="M100.4,280.43s4.52.69,4.38,3.96-.7,13.12-5.77,10.76-9.37-9.51-9.37-9.51l10.76-5.21Z"/><path class="cls-12_user-profile-53" d="M59.86,233.3s-5.14,32.5,7.78,36.65c2.85,1.69,6.27,2.13,9.45,1.21v10.27s13.04,9.86,23.74-.69v-26.44s-1.21-16.17-4.45-14.45c-.74.41-7.27-.27-8.33-12.11,0,0-14.99-6.66-21.93-2.08s-6.25,7.64-6.25,7.64Z"/><path class="cls-9_user-profile-53" d="M56.7,232.21c1.59,2.88,4.27,4.99,7.45,5.85,3.25.77,6.63-.63,8.37-3.48,2.69,3.77,7.77,4.93,11.82,2.69,1.72,2.42,5,3.09,7.95,2.91,3.77-.17,7.37-1.66,10.15-4.21,2.74-2.62,4.09-6.38,3.63-10.15-.64-4.35-3.92-7.85-7.44-10.48-5.55-4.23-12.13-6.9-19.06-7.74-6.26-.7-16.27,0-21.06,4.72s-5.23,14.12-1.8,19.89Z"/><path class="cls-7_user-profile-53" d="M77.08,271.25s7.91-2.08,10.83-5.69c0,0-4.03,15.83-10.83,15.96v-10.27Z"/><path class="cls-9_user-profile-53" d="M93.13,235.62l.57,11.2,2.25-3.08c.34-.47.8-.98,1.37-.88s.7.5.9.88c1.8,3.7,1.14,8.11-1.65,11.13-.48.41-.87.92-1.15,1.49-.14.49-.17,1.01-.1,1.51.23,3.27,5.05,7.11,5.87,4.74s.98-4.95,1.76-7.35c1.23-3.08,2.95-5.95,5.1-8.48,2.17-2.54,3.82-5.48,4.84-8.66.8-3.22.17-7.01-2.42-9.13-.49-.31-.9-.72-1.21-1.21-.15-.39-.23-.8-.23-1.21-.29-4.02-1.95-7.83-4.71-10.77-2.81-2.94-6.74-4.53-10.8-4.38-.68,0-1.35.16-1.96.46-1.13.78-1.87,2-2.05,3.35-1.3,6.06,1.51,12.11,2.57,18.26"/></g></svg>